<svg width="334" height="47" viewBox="0 0 334 47" fill="none" xmlns="http://www.w3.org/2000/svg">
<path d="M94.2297 1.60767H90.5645V16.2104H94.2963C95.3626 16.2104 96.3622 16.0095 97.2285 15.7416C98.0948 15.4066 98.7612 14.9377 99.361 14.2679C99.9608 13.665 100.361 12.8612 100.694 11.9234C100.96 10.9856 101.16 9.98082 101.16 8.84207C101.16 6.49759 100.561 4.68899 99.4276 3.48325C98.2281 2.21053 96.4955 1.60767 94.2297 1.60767ZM99.0944 8.84207C99.0944 10.6507 98.6946 12.0574 97.8283 13.0621C97.0286 14.0669 95.7624 14.5358 94.0964 14.5358H92.497V3.14833H94.0964C95.7624 3.14833 97.0286 3.61722 97.8283 4.55502C98.6946 5.62678 99.0944 7.03347 99.0944 8.84207Z" fill="white"/>
<path d="M105.892 5.35889H103.959V16.2105H105.892V5.35889Z" fill="white"/>
<path d="M104.958 3.28232C105.358 3.28232 105.624 3.14835 105.891 2.94739C106.157 2.74644 106.291 2.41151 106.291 2.07658C106.291 1.67467 106.157 1.40673 105.891 1.20578C105.624 1.00482 105.291 0.87085 104.958 0.87085C104.625 0.87085 104.291 1.00482 104.025 1.20578C103.758 1.40673 103.625 1.74166 103.625 2.07658C103.625 2.41151 103.758 2.74644 104.025 2.94739C104.225 3.14835 104.558 3.28232 104.958 3.28232Z" fill="white"/>
<path d="M114.155 5.09082C113.556 5.09082 112.956 5.29178 112.423 5.69369C111.89 6.0956 111.49 6.5645 111.156 7.23435L111.023 5.42575V5.35876H109.424V16.2104H111.356V9.24391C111.69 8.3731 112.156 7.70325 112.623 7.36832C113.089 7.03339 113.556 6.83244 114.022 6.83244C114.222 6.83244 114.422 6.83244 114.555 6.89942C114.688 6.89942 114.888 6.96641 115.022 7.03339H115.088L115.488 5.29178H115.421C115.022 5.15781 114.622 5.09082 114.155 5.09082Z" fill="white"/>
<path d="M119.087 16.0765C119.687 16.3445 120.42 16.4785 121.153 16.4785C121.886 16.4785 122.552 16.3445 123.152 16.1435C123.752 15.9426 124.285 15.6746 124.751 15.3397H124.818L124.085 14L124.018 14.067C123.619 14.3349 123.219 14.5359 122.819 14.6699C122.419 14.8038 121.952 14.8708 121.419 14.8708C120.42 14.8708 119.62 14.5359 118.954 13.866C118.354 13.1962 118.021 12.3254 117.887 11.2536H125.085V11.1866C125.085 11.0527 125.151 10.9187 125.151 10.7177C125.151 10.5168 125.151 10.3158 125.151 10.1819C125.151 9.44501 125.085 8.70818 124.885 8.10531C124.685 7.50244 124.418 6.96656 124.018 6.49766C123.685 6.02877 123.219 5.69384 122.686 5.49289C122.152 5.22494 121.553 5.15796 120.82 5.15796C120.22 5.15796 119.62 5.29193 119.02 5.55987C118.421 5.82781 117.887 6.22972 117.488 6.69862C117.021 7.16752 116.688 7.77038 116.421 8.50722C116.155 9.24406 116.021 10.0479 116.021 10.9187C116.021 11.7895 116.155 12.5933 116.421 13.3302C116.688 14 117.088 14.6029 117.554 15.1388C117.954 15.4737 118.487 15.8086 119.087 16.0765ZM117.887 9.84692C117.954 9.37803 118.087 8.90913 118.221 8.50722C118.421 8.10531 118.62 7.77038 118.887 7.50244C119.154 7.2345 119.487 7.03355 119.82 6.83259C120.153 6.69862 120.486 6.63163 120.886 6.63163C121.686 6.63163 122.352 6.89958 122.752 7.43546C123.219 7.97134 123.419 8.77516 123.419 9.77994H117.887V9.84692Z" fill="white"/>
<path d="M134.614 16.2105H136.747L132.615 9.7129L136.214 5.49282L136.28 5.35885H134.081L129.55 10.9856V0.334961H127.684V16.2105H129.55V13.3301L131.482 11.1196L134.614 16.2105Z" fill="white"/>
<path d="M138.412 12.8612C138.412 13.397 138.479 13.8659 138.545 14.3348C138.678 14.8037 138.812 15.2056 139.078 15.4736C139.345 15.8085 139.678 16.0095 140.078 16.2104C140.478 16.4114 140.944 16.4784 141.544 16.4784C141.877 16.4784 142.21 16.4114 142.61 16.3444C142.943 16.2774 143.277 16.1434 143.543 16.0765H143.61L143.21 14.6028H143.143C142.943 14.6698 142.743 14.7367 142.544 14.8037C142.344 14.8707 142.144 14.8707 141.944 14.8707C141.344 14.8707 140.944 14.6698 140.744 14.3348C140.544 13.9999 140.411 13.464 140.411 12.8612V6.96646H143.277V5.35882H140.344V2.34448H138.678L138.479 5.35882L136.812 5.49279V6.96646H138.412V12.8612Z" fill="white"/>
<path d="M154.073 13.1961C154.34 12.4593 154.473 11.6555 154.473 10.7847C154.473 9.91385 154.34 9.04304 154.073 8.37319C153.807 7.63635 153.407 7.03348 152.94 6.56459C152.474 6.09569 151.941 5.69378 151.341 5.42584C150.741 5.1579 150.075 5.02393 149.408 5.02393C148.742 5.02393 148.076 5.1579 147.476 5.42584C146.876 5.69378 146.343 6.0287 145.876 6.56459C145.41 7.03348 145.077 7.63635 144.744 8.37319C144.477 9.11003 144.344 9.91385 144.344 10.7847C144.344 11.6555 144.477 12.4593 144.744 13.1961C145.01 13.933 145.41 14.5358 145.876 15.0047C146.343 15.4736 146.876 15.8755 147.476 16.1435C148.076 16.4114 148.742 16.5454 149.408 16.5454C150.075 16.5454 150.741 16.4114 151.341 16.1435C151.941 15.8755 152.474 15.5406 152.94 15.0047C153.407 14.5358 153.74 13.933 154.073 13.1961ZM152.474 10.7847C152.474 11.3875 152.407 11.9234 152.274 12.4593C152.141 12.9282 151.941 13.3971 151.674 13.732C151.408 14.0669 151.074 14.3349 150.741 14.5358C150.341 14.7368 149.942 14.8038 149.542 14.8038C149.075 14.8038 148.675 14.7368 148.342 14.5358C147.942 14.3349 147.676 14.0669 147.409 13.732C147.143 13.3971 146.943 12.9282 146.809 12.4593C146.676 11.9904 146.61 11.3875 146.61 10.7847C146.61 10.1818 146.676 9.57892 146.809 9.11003C146.943 8.64113 147.143 8.17223 147.409 7.83731C147.676 7.50238 148.009 7.16745 148.342 7.03348C148.742 6.83253 149.142 6.76554 149.542 6.76554C150.008 6.76554 150.408 6.83253 150.741 7.03348C151.141 7.23444 151.408 7.50238 151.674 7.83731C151.941 8.17223 152.141 8.64113 152.274 9.11003C152.407 9.64591 152.474 10.1818 152.474 10.7847Z" fill="white"/>
<path d="M161.937 5.09082C161.337 5.09082 160.737 5.29178 160.204 5.69369C159.671 6.0956 159.271 6.5645 158.938 7.23435L158.804 5.42575V5.35876H157.205V16.2104H159.138V9.24391C159.471 8.3731 159.937 7.70325 160.404 7.36832C160.87 7.03339 161.337 6.83244 161.803 6.83244C162.003 6.83244 162.203 6.83244 162.336 6.89942C162.47 6.89942 162.67 6.96641 162.803 7.03339H162.87L163.269 5.29178H163.203C162.803 5.15781 162.403 5.09082 161.937 5.09082Z" fill="white"/>
<path d="M163.602 13.397C163.602 14.4018 163.935 15.1386 164.535 15.6745C165.134 16.2104 165.934 16.4783 166.8 16.4783C167.467 16.4783 168.133 16.3443 168.733 16.0094C169.333 15.7415 169.866 15.3396 170.332 14.9377L170.466 16.2104H172.065V9.57883C172.065 8.23913 171.732 7.16736 171.199 6.29655C170.599 5.49273 169.599 5.09082 168.333 5.09082C167.467 5.09082 166.667 5.22479 165.934 5.55972C165.201 5.89464 164.601 6.16258 164.068 6.49751L164.001 6.5645L164.801 7.97119L164.868 7.9042C165.268 7.63626 165.801 7.36832 166.334 7.10038C166.867 6.89942 167.467 6.76545 168.066 6.76545C168.466 6.76545 168.866 6.83244 169.133 6.96641C169.399 7.10038 169.599 7.30133 169.799 7.56927C169.932 7.83722 170.066 8.10516 170.132 8.44008C170.199 8.70802 170.199 9.04295 170.199 9.37788C167.933 9.64582 166.267 10.0477 165.268 10.7176C164.135 11.2535 163.602 12.1913 163.602 13.397ZM165.734 12.3252C165.867 12.0573 166.134 11.7893 166.534 11.5884C166.934 11.3874 167.4 11.1865 168 11.0525C168.6 10.9185 169.333 10.7846 170.199 10.6506V13.531C169.732 13.9999 169.199 14.3348 168.8 14.6027C168.333 14.8707 167.867 14.9377 167.4 14.9377C166.867 14.9377 166.467 14.8037 166.067 14.5357C165.734 14.2678 165.534 13.8659 165.534 13.263C165.467 12.9281 165.534 12.5932 165.734 12.3252Z" fill="white"/>
<path d="M178.464 16.4784C178.797 16.4784 179.13 16.4114 179.53 16.3444C179.863 16.2774 180.196 16.1434 180.463 16.0765H180.53L180.13 14.6028H180.063C179.863 14.6698 179.663 14.7367 179.463 14.8037C179.263 14.8707 179.063 14.8707 178.864 14.8707C178.264 14.8707 177.864 14.6698 177.664 14.3348C177.464 13.9999 177.331 13.464 177.331 12.8612V6.96646H180.196V5.35882H177.331V2.34448H175.665L175.465 5.35882L173.799 5.49279V6.96646H175.398V12.8612C175.398 13.397 175.465 13.8659 175.531 14.3348C175.665 14.8037 175.798 15.2056 176.065 15.4736C176.331 15.8085 176.664 16.0095 177.064 16.2104C177.397 16.4114 177.864 16.4784 178.464 16.4784Z" fill="white"/>
<path d="M182.86 15.0047C183.327 15.4736 183.86 15.8755 184.526 16.1434C185.126 16.4114 185.859 16.5454 186.592 16.5454C187.325 16.5454 187.992 16.4114 188.591 16.2104C189.191 16.0095 189.724 15.7415 190.191 15.4066H190.257L189.524 14.0669L189.458 14.1339C189.058 14.4018 188.658 14.6028 188.258 14.7368C187.858 14.8707 187.392 14.9377 186.859 14.9377C185.859 14.9377 185.06 14.6028 184.393 13.9329C183.793 13.2631 183.46 12.3923 183.327 11.3205H190.524V11.2535C190.524 11.1196 190.591 10.9856 190.591 10.7846C190.591 10.5837 190.591 10.3827 190.591 10.2487C190.591 9.51191 190.524 8.77507 190.324 8.1722C190.124 7.56934 189.858 7.03346 189.458 6.56456C189.125 6.09566 188.658 5.76074 188.125 5.55978C187.592 5.29184 186.992 5.22485 186.259 5.22485C185.659 5.22485 185.06 5.35882 184.46 5.62676C183.86 5.89471 183.327 6.29662 182.927 6.76551C182.461 7.23441 182.127 7.83728 181.861 8.57412C181.594 9.31095 181.461 10.1148 181.461 10.9856C181.461 11.8564 181.594 12.6602 181.861 13.3971C181.994 13.8659 182.394 14.4688 182.86 15.0047ZM183.26 9.84684C183.327 9.37794 183.46 8.90904 183.593 8.50713C183.793 8.10522 183.993 7.77029 184.26 7.50235C184.526 7.23441 184.86 7.03345 185.193 6.8325C185.526 6.69853 185.859 6.63154 186.259 6.63154C187.059 6.63154 187.725 6.89948 188.125 7.43537C188.591 7.97125 188.791 8.77507 188.791 9.77985H183.26V9.84684Z" fill="white"/>
<path d="M197.856 14.6028C197.656 14.6698 197.456 14.7367 197.256 14.8037C197.056 14.8707 196.856 14.8707 196.656 14.8707C196.057 14.8707 195.657 14.6698 195.457 14.3348C195.257 13.9999 195.124 13.464 195.124 12.8612V6.96646H197.989V5.35882H195.124V2.34448H193.458L193.258 5.35882L191.592 5.49279V6.96646H193.191V12.8612C193.191 13.397 193.258 13.8659 193.324 14.3348C193.458 14.8037 193.591 15.2056 193.858 15.4736C194.124 15.8085 194.457 16.0095 194.857 16.2104C195.257 16.4114 195.723 16.4784 196.323 16.4784C196.656 16.4784 196.99 16.4114 197.39 16.3444C197.723 16.2774 198.056 16.1434 198.322 16.0765H198.389L197.989 14.6028H197.856Z" fill="white"/>
<path d="M209.384 5.35882H207.118V3.68419C207.118 2.34448 207.584 1.67463 208.517 1.67463C208.917 1.67463 209.317 1.74162 209.717 1.94257H209.783L210.183 0.468897V0.401911H210.117C209.85 0.267941 209.584 0.200956 209.25 0.13397C208.917 0.0669852 208.651 0 208.251 0C207.185 0 206.385 0.334926 205.852 1.00478C205.319 1.67463 205.052 2.54544 205.052 3.68419V5.29183L203.586 5.4258V6.89948H205.052V16.1434H206.985V6.96646H209.25V5.35882H209.384Z" fill="white"/>
<path d="M211.783 15.0047C212.249 15.4736 212.782 15.8755 213.382 16.1435C213.982 16.4114 214.648 16.5454 215.315 16.5454C215.981 16.5454 216.647 16.4114 217.247 16.1435C217.847 15.8755 218.38 15.5406 218.847 15.0047C219.313 14.5358 219.646 13.933 219.979 13.1961C220.246 12.4593 220.379 11.6555 220.379 10.7847C220.379 9.91385 220.246 9.04304 219.979 8.37319C219.713 7.63635 219.313 7.03348 218.847 6.56459C218.38 6.09569 217.847 5.69378 217.247 5.42584C216.647 5.1579 215.981 5.02393 215.315 5.02393C214.648 5.02393 213.982 5.1579 213.382 5.42584C212.782 5.69378 212.249 6.0287 211.783 6.56459C211.316 7.03348 210.983 7.63635 210.65 8.37319C210.383 9.11003 210.25 9.91385 210.25 10.7847C210.25 11.6555 210.383 12.4593 210.65 13.1961C210.916 13.933 211.316 14.5358 211.783 15.0047ZM212.249 10.7847C212.249 10.1818 212.316 9.57892 212.449 9.11003C212.582 8.64113 212.782 8.17223 213.049 7.83731C213.315 7.50238 213.649 7.16745 213.982 7.03348C214.382 6.83253 214.782 6.76554 215.181 6.76554C215.648 6.76554 216.048 6.83253 216.381 7.03348C216.781 7.23444 217.047 7.50238 217.314 7.83731C217.58 8.17223 217.78 8.64113 217.914 9.11003C218.047 9.57892 218.114 10.1818 218.114 10.7847C218.114 11.3875 218.047 11.9234 217.914 12.4593C217.78 12.9282 217.58 13.3971 217.314 13.732C217.047 14.0669 216.714 14.3349 216.381 14.5358C215.981 14.7368 215.581 14.8038 215.181 14.8038C214.715 14.8038 214.315 14.7368 213.982 14.5358C213.582 14.3349 213.315 14.0669 213.049 13.732C212.782 13.3971 212.582 12.9282 212.449 12.4593C212.316 11.9904 212.249 11.4545 212.249 10.7847Z" fill="white"/>
<path d="M227.91 6.89942C228.044 6.89942 228.244 6.96641 228.377 7.03339H228.444L228.843 5.29178H228.777C228.444 5.15781 228.044 5.09082 227.577 5.09082C226.977 5.09082 226.378 5.29178 225.845 5.69369C225.311 6.0956 224.912 6.5645 224.578 7.23435L224.445 5.42575V5.35876H222.846V16.2104H224.778V9.24391C225.111 8.3731 225.578 7.70325 226.044 7.36832C226.511 7.03339 226.977 6.83244 227.444 6.83244C227.577 6.83244 227.777 6.89942 227.91 6.89942Z" fill="white"/>
<path d="M237.04 3.68419C237.04 2.34448 237.506 1.67463 238.439 1.67463C238.839 1.67463 239.239 1.74162 239.639 1.94257H239.705L240.105 0.468897V0.401911H240.039C239.772 0.267941 239.505 0.200956 239.172 0.13397C238.839 0.0669852 238.572 0 238.173 0C237.106 0 236.307 0.334926 235.774 1.00478C235.24 1.67463 234.974 2.54544 234.974 3.68419V5.29183L233.508 5.4258V6.89948H234.974V16.1434H236.906V6.96646H239.172V5.35882H236.906V3.68419H237.04Z" fill="white"/>
<path d="M248.702 6.56459C248.236 6.09569 247.702 5.69378 247.103 5.42584C246.503 5.1579 245.837 5.02393 245.17 5.02393C244.504 5.02393 243.837 5.1579 243.238 5.42584C242.638 5.69378 242.105 6.0287 241.638 6.56459C241.172 7.03348 240.839 7.63635 240.505 8.37319C240.239 9.11003 240.105 9.91385 240.105 10.7847C240.105 11.6555 240.239 12.4593 240.505 13.1961C240.772 13.933 241.172 14.5358 241.638 15.0047C242.105 15.4736 242.638 15.8755 243.238 16.1435C243.837 16.4114 244.504 16.5454 245.17 16.5454C245.837 16.5454 246.503 16.4114 247.103 16.1435C247.702 15.8755 248.236 15.5406 248.702 15.0047C249.169 14.5358 249.502 13.933 249.835 13.1961C250.102 12.4593 250.235 11.6555 250.235 10.7847C250.235 9.91385 250.102 9.04304 249.835 8.37319C249.568 7.70334 249.169 7.10047 248.702 6.56459ZM248.236 10.7847C248.236 11.3875 248.169 11.9234 248.036 12.4593C247.902 12.9282 247.702 13.3971 247.436 13.732C247.169 14.0669 246.836 14.3349 246.503 14.5358C246.103 14.7368 245.703 14.8038 245.303 14.8038C244.837 14.8038 244.437 14.7368 244.104 14.5358C243.704 14.3349 243.437 14.0669 243.171 13.732C242.904 13.3971 242.704 12.9282 242.571 12.4593C242.438 11.9904 242.371 11.3875 242.371 10.7847C242.371 10.1818 242.438 9.57892 242.571 9.11003C242.704 8.64113 242.904 8.17223 243.171 7.83731C243.437 7.50238 243.771 7.16745 244.104 7.03348C244.504 6.83253 244.904 6.76554 245.303 6.76554C245.77 6.76554 246.17 6.83253 246.503 7.03348C246.903 7.23444 247.169 7.50238 247.436 7.83731C247.702 8.17223 247.902 8.64113 248.036 9.11003C248.169 9.64591 248.236 10.1818 248.236 10.7847Z" fill="white"/>
<path d="M254.833 9.24391C255.166 8.3731 255.632 7.70325 256.099 7.36832C256.565 7.03339 257.032 6.83244 257.498 6.83244C257.698 6.83244 257.898 6.83244 258.031 6.89942C258.165 6.89942 258.365 6.96641 258.498 7.03339H258.565L258.964 5.29178H258.898C258.565 5.15781 258.165 5.09082 257.698 5.09082C257.098 5.09082 256.499 5.29178 255.966 5.69369C255.432 6.0956 255.033 6.5645 254.699 7.23435L254.566 5.42575V5.35876H252.967V16.2104H254.899L254.833 9.24391Z" fill="white"/>
<path d="M265.495 11.5215L265.029 13.1292C264.895 13.6651 264.696 14.134 264.562 14.6028C264.429 14.134 264.229 13.5981 264.096 13.1292C263.896 12.5933 263.763 12.0574 263.629 11.5215L261.63 5.42587V5.35889H259.631L263.496 16.2105V16.2775H265.695L269.494 5.49286V5.42587H267.561L265.495 11.5215Z" fill="white"/>
<path d="M275.024 5.09082C274.158 5.09082 273.358 5.22479 272.625 5.55972C271.892 5.89464 271.292 6.16258 270.759 6.49751L270.693 6.5645L271.492 7.97119L271.559 7.9042C271.959 7.63626 272.492 7.36832 273.025 7.10038C273.558 6.89942 274.158 6.76545 274.758 6.76545C275.157 6.76545 275.557 6.83244 275.824 6.96641C276.09 7.10038 276.29 7.30133 276.49 7.56927C276.624 7.83722 276.757 8.10516 276.824 8.44008C276.89 8.70802 276.89 9.04295 276.89 9.37788C274.624 9.64582 272.958 10.0477 271.959 10.7176C270.892 11.3874 270.359 12.2582 270.359 13.464C270.359 14.4688 270.693 15.2056 271.292 15.7415C271.892 16.2774 272.692 16.5453 273.558 16.5453C274.225 16.5453 274.891 16.4113 275.491 16.0764C276.09 15.8085 276.624 15.4065 277.09 15.0046L277.223 16.2774H278.823V9.64582C278.823 8.30611 278.49 7.23435 277.956 6.36354C277.29 5.49273 276.357 5.09082 275.024 5.09082ZM272.425 12.3252C272.558 12.0573 272.825 11.7893 273.225 11.5884C273.625 11.3874 274.091 11.1865 274.691 11.0525C275.291 10.9185 276.024 10.7846 276.89 10.6506V13.531C276.424 13.9999 275.891 14.3348 275.491 14.6027C275.024 14.8707 274.558 14.9377 274.091 14.9377C273.558 14.9377 273.158 14.8037 272.758 14.5357C272.425 14.2678 272.225 13.8659 272.225 13.263C272.159 12.9281 272.225 12.5932 272.425 12.3252Z" fill="white"/>
<path d="M284.754 14.8038C284.62 14.8708 284.554 14.8708 284.554 14.8708H284.421C284.287 14.8708 284.221 14.8038 284.087 14.7368C284.021 14.6028 283.954 14.4688 283.954 14.1339V0.334961H282.021V13.9999C282.021 14.8038 282.155 15.4066 282.488 15.8755C282.821 16.2774 283.288 16.5454 284.021 16.5454C284.287 16.5454 284.487 16.5454 284.62 16.4784C284.754 16.4784 284.954 16.4114 285.087 16.3444H285.154L284.887 14.8708L284.754 14.8038Z" fill="white"/>
<path d="M292.684 14.6028C292.484 14.6698 292.284 14.7367 292.084 14.8037C291.884 14.8707 291.685 14.8707 291.485 14.8707C290.885 14.8707 290.485 14.6698 290.285 14.3348C290.085 13.9999 289.952 13.464 289.952 12.8612V6.96646H292.817V5.35882H289.952V2.34448H288.286L288.086 5.35882L286.42 5.49279V6.96646H288.019V12.8612C288.019 13.397 288.086 13.8659 288.153 14.3348C288.286 14.8037 288.419 15.2056 288.686 15.4736C288.952 15.8085 289.285 16.0095 289.685 16.2104C290.085 16.4114 290.552 16.4784 291.151 16.4784C291.485 16.4784 291.818 16.4114 292.218 16.3444C292.551 16.2774 292.884 16.1434 293.151 16.0765H293.217L292.817 14.6028H292.684Z" fill="white"/>
<path d="M300.415 5.09082C299.682 5.09082 299.016 5.29178 298.416 5.6267C297.883 5.96163 297.35 6.36354 296.817 6.89942L296.683 5.35876H295.084V16.2104H297.017V8.44008C297.55 7.9042 298.016 7.50229 298.416 7.23435C298.816 6.96641 299.282 6.83244 299.882 6.83244C300.549 6.83244 301.082 7.03339 301.348 7.50229C301.681 7.97119 301.815 8.64104 301.815 9.64582V16.2774H303.747V9.37788C303.747 7.97119 303.481 6.89942 302.948 6.22957C302.414 5.42575 301.548 5.09082 300.415 5.09082Z" fill="white"/>
<path d="M309.013 5.35889H307.08V16.2105H309.013V5.35889Z" fill="white"/>
<path d="M308.079 0.803711C307.679 0.803711 307.413 0.937681 307.146 1.13864C306.879 1.33959 306.746 1.67452 306.746 2.00944C306.746 2.34437 306.879 2.6793 307.146 2.88025C307.413 3.08121 307.746 3.21518 308.079 3.21518C308.479 3.21518 308.745 3.08121 309.012 2.88025C309.278 2.6793 309.412 2.34437 309.412 2.00944C309.412 1.60753 309.278 1.33959 309.012 1.13864C308.745 0.937681 308.479 0.803711 308.079 0.803711Z" fill="white"/>
<path d="M317.874 5.09082C317.141 5.09082 316.475 5.29178 315.875 5.6267C315.342 5.96163 314.809 6.36354 314.276 6.89942L314.142 5.35876H312.543V16.2104H314.476V8.44008C315.009 7.9042 315.475 7.50229 315.875 7.23435C316.275 6.96641 316.741 6.83244 317.341 6.83244C318.008 6.83244 318.541 7.03339 318.807 7.50229C319.14 7.97119 319.274 8.64104 319.274 9.64582V16.2774H321.206V9.37788C321.206 7.97119 320.94 6.89942 320.407 6.22957C319.873 5.42575 319.007 5.09082 317.874 5.09082Z" fill="white"/>
<path d="M332.536 15.4065C331.936 15.0046 330.937 14.8037 329.67 14.8037H327.605C326.872 14.8037 326.405 14.6697 326.139 14.4688C325.872 14.2678 325.739 13.9999 325.739 13.6649C325.739 13.397 325.805 13.129 325.939 12.9281C326.072 12.7271 326.205 12.5932 326.405 12.4592C326.672 12.5932 326.872 12.6602 327.138 12.7271C327.405 12.7941 327.671 12.8611 327.938 12.8611C328.471 12.8611 329.004 12.7941 329.471 12.5932C329.937 12.3922 330.404 12.1913 330.737 11.8563C331.07 11.5214 331.403 11.1195 331.603 10.6506C331.803 10.1817 331.936 9.64582 331.936 9.04295C331.936 8.57405 331.87 8.17214 331.67 7.77023C331.536 7.4353 331.336 7.16736 331.137 6.89942H333.269V5.35876H329.471C329.271 5.29178 329.004 5.22479 328.804 5.15781C328.538 5.09082 328.271 5.09082 327.938 5.09082C327.405 5.09082 326.872 5.15781 326.338 5.35876C325.872 5.55972 325.405 5.82766 325.006 6.16258C324.606 6.49751 324.339 6.89942 324.139 7.36832C323.939 7.83722 323.806 8.3731 323.806 8.97596C323.806 9.64582 323.939 10.2487 324.273 10.7176C324.539 11.1865 324.872 11.5884 325.206 11.9233C324.939 12.1243 324.672 12.3922 324.406 12.7271C324.139 13.0621 324.006 13.464 324.006 13.9329C324.006 14.4018 324.073 14.7367 324.273 15.0716C324.473 15.3396 324.672 15.6075 324.939 15.7415C324.473 16.0764 324.073 16.4783 323.806 16.8802C323.54 17.2821 323.406 17.751 323.406 18.2199C323.406 18.6888 323.54 19.1577 323.739 19.4926C323.939 19.8276 324.273 20.1625 324.672 20.4304C325.072 20.6984 325.539 20.8993 326.072 21.0333C326.605 21.1673 327.205 21.2343 327.871 21.2343C328.737 21.2343 329.471 21.1003 330.137 20.8993C330.803 20.6984 331.403 20.4304 331.87 20.0955C332.336 19.7606 332.736 19.3587 332.936 18.8898C333.202 18.4209 333.336 17.952 333.336 17.4161C333.469 16.4783 333.136 15.8085 332.536 15.4065ZM325.805 8.97596C325.805 8.17214 326.005 7.56927 326.472 7.16736C326.872 6.76545 327.405 6.5645 328.004 6.5645C328.604 6.5645 329.137 6.76545 329.537 7.16736C329.937 7.56927 330.204 8.17214 330.204 8.97596C330.204 9.37788 330.137 9.7128 330.004 10.0477C329.87 10.3827 329.737 10.6506 329.537 10.8516C329.337 11.0525 329.071 11.2535 328.804 11.3204C328.271 11.5214 327.671 11.5214 327.138 11.3204C326.872 11.1865 326.605 11.0525 326.405 10.8516C326.205 10.6506 326.005 10.3827 325.939 10.0477C325.872 9.7128 325.805 9.37788 325.805 8.97596ZM331.603 17.684C331.603 17.952 331.536 18.2199 331.403 18.4879C331.27 18.7558 331.003 18.9568 330.737 19.1577C330.47 19.3587 330.07 19.4926 329.67 19.6266C329.271 19.7606 328.804 19.8276 328.271 19.8276C327.338 19.8276 326.538 19.6266 326.005 19.3587C325.472 19.0238 325.206 18.6218 325.206 18.019C325.206 17.751 325.272 17.4161 325.472 17.1482C325.672 16.8802 325.939 16.5453 326.272 16.2774C326.472 16.3443 326.738 16.4113 326.938 16.4113C327.205 16.4113 327.405 16.4783 327.605 16.4783H329.471C330.137 16.4783 330.67 16.5453 331.07 16.7463C331.403 16.8802 331.603 17.2151 331.603 17.684Z" fill="white"/>
<path d="M98.1611 31.8849C97.6946 31.416 97.1615 31.0141 96.5617 30.7462C95.9619 30.4782 95.2955 30.3442 94.6291 30.3442C93.9627 30.3442 93.2963 30.4782 92.6966 30.7462C92.0968 31.0141 91.5637 31.349 91.0972 31.8849C90.6307 32.3538 90.2975 32.9567 89.9643 33.6935C89.6977 34.4303 89.5645 35.2342 89.5645 36.105C89.5645 36.9758 89.6977 37.7796 89.9643 38.5164C90.2309 39.2533 90.6307 39.8561 91.0972 40.325C91.5637 40.7939 92.0968 41.1958 92.6966 41.4638C93.2963 41.7317 93.9627 41.8657 94.6291 41.8657C95.2955 41.8657 95.9619 41.7317 96.5617 41.4638C97.1615 41.1958 97.6946 40.8609 98.1611 40.325C98.6276 39.8561 98.9608 39.2533 99.294 38.5164C99.5605 37.7796 99.6938 36.9758 99.6938 36.105C99.6938 35.2342 99.5605 34.3634 99.294 33.6935C98.9608 33.0236 98.6276 32.4208 98.1611 31.8849ZM97.628 36.105C97.628 36.7078 97.5613 37.2437 97.428 37.7796C97.2948 38.2485 97.0948 38.7174 96.8283 39.0523C96.5617 39.3872 96.2285 39.6552 95.8953 39.8561C95.4955 40.0571 95.0956 40.1241 94.6958 40.1241C94.2293 40.1241 93.8295 40.0571 93.4962 39.8561C93.0964 39.6552 92.8298 39.3872 92.5633 39.0523C92.2967 38.7174 92.0968 38.2485 91.9635 37.7796C91.8302 37.3107 91.7636 36.7078 91.7636 36.105C91.7636 35.5021 91.8302 34.8992 91.9635 34.4303C92.0968 33.9614 92.2967 33.4925 92.5633 33.1576C92.8298 32.8227 93.163 32.4878 93.4962 32.3538C93.8961 32.1528 94.2959 32.0859 94.6958 32.0859C95.1623 32.0859 95.5621 32.1528 95.8953 32.3538C96.2951 32.5548 96.5617 32.8227 96.8283 33.1576C97.0948 33.4925 97.2948 33.9614 97.428 34.4303C97.5613 34.9662 97.628 35.5021 97.628 36.105Z" fill="white"/>
<path d="M110.489 40.7271C109.889 40.3252 108.89 40.1242 107.624 40.1242H105.558C104.825 40.1242 104.358 39.9903 104.092 39.7893C103.825 39.5884 103.692 39.3204 103.692 38.9855C103.692 38.7175 103.758 38.4496 103.892 38.2486C104.025 38.0477 104.158 37.9137 104.358 37.7798C104.625 37.9137 104.825 37.9807 105.091 38.0477C105.358 38.1147 105.624 38.1817 105.891 38.1817C106.424 38.1817 106.957 38.1147 107.424 37.9137C107.89 37.7128 108.357 37.5118 108.69 37.1769C109.023 36.842 109.356 36.44 109.556 35.9712C109.756 35.5023 109.889 34.9664 109.889 34.3635C109.889 33.8946 109.823 33.4927 109.623 33.0908C109.49 32.7559 109.29 32.4879 109.09 32.22H111.222V30.6793H107.424C107.224 30.6123 106.957 30.5453 106.757 30.4784C106.491 30.4114 106.224 30.4114 105.891 30.4114C105.358 30.4114 104.825 30.4784 104.292 30.6793C103.825 30.8803 103.359 31.1482 102.959 31.4831C102.559 31.8181 102.292 32.22 102.092 32.6889C101.892 33.1578 101.759 33.6937 101.759 34.2965C101.759 34.9664 101.892 35.5692 102.226 36.0381C102.492 36.507 102.825 36.9089 103.159 37.2439C102.892 37.4448 102.626 37.7128 102.359 38.0477C102.092 38.3826 101.959 38.7845 101.959 39.2534C101.959 39.7223 102.026 40.0573 102.226 40.3922C102.426 40.6601 102.626 40.9281 102.892 41.062C102.426 41.397 102.026 41.7989 101.759 42.2008C101.493 42.6027 101.359 43.0716 101.359 43.5405C101.359 44.0094 101.493 44.4783 101.693 44.8132C101.892 45.1481 102.226 45.4831 102.626 45.751C103.025 46.0189 103.492 46.2199 104.025 46.3539C104.558 46.4878 105.158 46.5548 105.824 46.5548C106.691 46.5548 107.424 46.4209 108.09 46.2199C108.756 46.0189 109.356 45.751 109.823 45.4161C110.289 45.0811 110.689 44.6792 110.889 44.2103C111.156 43.7414 111.289 43.2725 111.289 42.7367C111.489 41.7989 111.156 41.129 110.489 40.7271ZM103.825 34.2965C103.825 33.4927 104.025 32.8898 104.491 32.4879C104.891 32.086 105.424 31.8851 106.024 31.8851C106.624 31.8851 107.157 32.086 107.557 32.4879C107.957 32.8898 108.223 33.4927 108.223 34.2965C108.223 34.6984 108.157 35.0334 108.023 35.3683C107.89 35.7032 107.757 35.9712 107.557 36.1721C107.357 36.3731 107.09 36.574 106.824 36.641C106.291 36.842 105.691 36.842 105.158 36.641C104.891 36.507 104.625 36.3731 104.425 36.1721C104.225 35.9712 104.025 35.7032 103.958 35.3683C103.892 35.0334 103.825 34.6984 103.825 34.2965ZM109.556 43.0046C109.556 43.2725 109.49 43.5405 109.356 43.8084C109.223 44.0764 108.956 44.2773 108.69 44.4783C108.423 44.6792 108.023 44.8132 107.624 44.9472C107.224 45.0811 106.757 45.1481 106.224 45.1481C105.291 45.1481 104.491 44.9472 103.958 44.6792C103.425 44.3443 103.159 43.9424 103.159 43.3395C103.159 43.0716 103.225 42.7367 103.425 42.4687C103.625 42.2008 103.892 41.8659 104.225 41.5979C104.425 41.6649 104.691 41.7319 104.891 41.7319C105.158 41.7319 105.358 41.7989 105.558 41.7989H107.424C108.09 41.7989 108.623 41.8659 109.023 42.0668C109.423 42.2008 109.556 42.5357 109.556 43.0046Z" fill="white"/>
<path d="M126.55 30.1433L125.484 31.483C125.084 31.1481 124.617 30.8801 124.084 30.6792C123.551 30.4782 123.018 30.4113 122.418 30.4113C121.752 30.4113 121.085 30.5452 120.486 30.8132C119.886 31.0811 119.353 31.416 118.886 31.9519C118.42 32.4208 118.087 33.0237 117.753 33.7605C117.487 34.4974 117.354 35.3012 117.354 36.172C117.354 36.9758 117.487 37.7126 117.687 38.3155C117.887 38.9184 118.153 39.4543 118.553 39.9232L117.354 41.3968L118.286 42.1337L119.353 40.794C120.219 41.4638 121.285 41.8657 122.418 41.8657C123.085 41.8657 123.751 41.7318 124.351 41.4638C124.951 41.1959 125.484 40.8609 125.95 40.3251C126.417 39.8562 126.75 39.2533 127.083 38.5165C127.35 37.7796 127.483 36.9758 127.483 36.105C127.483 35.3012 127.35 34.5643 127.15 33.9615C126.95 33.3586 126.683 32.7557 126.283 32.2868L127.483 30.8132L126.55 30.1433ZM124.351 32.8227L119.753 38.4495C119.419 37.7796 119.286 36.9758 119.286 36.105C119.286 35.5021 119.353 34.9662 119.553 34.4304C119.686 33.9615 119.952 33.4926 120.219 33.1576C120.486 32.8227 120.819 32.5548 121.219 32.3538C121.619 32.1529 122.018 32.0859 122.485 32.0859C123.218 32.0189 123.818 32.2868 124.351 32.8227ZM125.484 36.172C125.484 36.7748 125.417 37.3107 125.284 37.7796C125.15 38.2485 124.884 38.7174 124.617 39.0523C124.351 39.3873 124.018 39.6552 123.618 39.8562C123.218 40.0571 122.818 40.1241 122.352 40.1241C121.619 40.1241 120.952 39.8562 120.419 39.3203L125.017 33.6935C125.35 34.4974 125.484 35.3012 125.484 36.172Z" fill="white"/>
<path d="M138.612 30.8131L138.745 30.6792H136.546L132.015 36.3059V25.6553H130.082V41.5308H132.015V38.6504L133.947 36.4399L137.013 41.5308H139.212L135.08 35.0332L138.612 30.8131Z" fill="white"/>
<path d="M148.341 31.8849C147.874 31.416 147.341 31.0141 146.741 30.7462C146.142 30.4782 145.475 30.3442 144.809 30.3442C144.142 30.3442 143.476 30.4782 142.876 30.7462C142.276 31.0141 141.743 31.349 141.277 31.8849C140.81 32.3538 140.477 32.9567 140.144 33.6935C139.877 34.4303 139.744 35.2342 139.744 36.105C139.744 36.9758 139.877 37.7796 140.144 38.5164C140.411 39.2533 140.81 39.8561 141.277 40.325C141.743 40.7939 142.276 41.1958 142.876 41.4638C143.476 41.7317 144.142 41.8657 144.809 41.8657C145.475 41.8657 146.142 41.7317 146.741 41.4638C147.341 41.1958 147.874 40.8609 148.341 40.325C148.807 39.8561 149.14 39.2533 149.474 38.5164C149.74 37.7796 149.873 36.9758 149.873 36.105C149.873 35.2342 149.74 34.3634 149.474 33.6935C149.14 33.0236 148.807 32.4208 148.341 31.8849ZM147.808 36.105C147.808 36.7078 147.741 37.2437 147.608 37.7796C147.474 38.2485 147.275 38.7174 147.008 39.0523C146.741 39.3872 146.408 39.6552 146.075 39.8561C145.675 40.0571 145.275 40.1241 144.875 40.1241C144.409 40.1241 144.009 40.0571 143.676 39.8561C143.276 39.6552 143.01 39.3872 142.743 39.0523C142.476 38.7174 142.276 38.2485 142.143 37.7796C142.01 37.3107 141.943 36.7078 141.943 36.105C141.943 35.5021 142.01 34.8992 142.143 34.4303C142.276 33.9614 142.476 33.4925 142.743 33.1576C143.01 32.8227 143.343 32.4878 143.676 32.3538C144.076 32.1528 144.476 32.0859 144.875 32.0859C145.342 32.0859 145.742 32.1528 146.075 32.3538C146.475 32.5548 146.741 32.8227 147.008 33.1576C147.275 33.4925 147.474 33.9614 147.608 34.4303C147.741 34.9662 147.808 35.5021 147.808 36.105Z" fill="white"/>
<path d="M157.87 30.4114C157.137 30.4114 156.471 30.6123 155.871 30.9473C155.338 31.2822 154.805 31.6841 154.272 32.22L154.138 30.6793H152.539V41.5309H154.472V33.6937C155.005 33.1578 155.471 32.7559 155.871 32.4879C156.271 32.22 156.737 32.086 157.337 32.086C158.004 32.086 158.537 32.287 158.803 32.7559C159.136 33.2248 159.27 33.8946 159.27 34.8994V41.5309H161.202V34.6314C161.202 33.2248 160.936 32.153 160.403 31.4831C159.87 30.7463 159.003 30.4114 157.87 30.4114Z" fill="white"/>
<path d="M172.265 31.8849C171.798 31.416 171.265 31.0141 170.665 30.7462C170.065 30.4782 169.399 30.3442 168.733 30.3442C168.066 30.3442 167.4 30.4782 166.8 30.7462C166.2 31.0141 165.667 31.349 165.201 31.8849C164.734 32.3538 164.401 32.9567 164.068 33.6935C163.801 34.4303 163.668 35.2342 163.668 36.105C163.668 36.9758 163.801 37.7796 164.068 38.5164C164.334 39.2533 164.734 39.8561 165.201 40.325C165.667 40.7939 166.2 41.1958 166.8 41.4638C167.4 41.7317 168.066 41.8657 168.733 41.8657C169.399 41.8657 170.065 41.7317 170.665 41.4638C171.265 41.1958 171.798 40.8609 172.265 40.325C172.731 39.8561 173.064 39.2533 173.398 38.5164C173.664 37.7796 173.797 36.9758 173.797 36.105C173.797 35.2342 173.664 34.3634 173.398 33.6935C173.131 33.0236 172.731 32.4208 172.265 31.8849ZM171.798 36.105C171.798 36.7078 171.731 37.2437 171.598 37.7796C171.465 38.2485 171.265 38.7174 170.998 39.0523C170.732 39.3872 170.399 39.6552 170.065 39.8561C169.666 40.0571 169.266 40.1241 168.866 40.1241C168.399 40.1241 168 40.0571 167.666 39.8561C167.267 39.6552 167 39.3872 166.733 39.0523C166.467 38.7174 166.267 38.2485 166.134 37.7796C166 37.3107 165.934 36.7078 165.934 36.105C165.934 35.5021 166 34.8992 166.134 34.4303C166.267 33.9614 166.467 33.4925 166.733 33.1576C167 32.8227 167.333 32.4878 167.666 32.3538C168.066 32.1528 168.466 32.0859 168.866 32.0859C169.332 32.0859 169.732 32.1528 170.065 32.3538C170.465 32.5548 170.732 32.8227 170.998 33.1576C171.265 33.4925 171.465 33.9614 171.598 34.4303C171.731 34.9662 171.798 35.5021 171.798 36.105Z" fill="white"/>
<path d="M188.06 30.4114C187.393 30.4114 186.727 30.6123 186.194 31.0142C185.661 31.3492 185.128 31.8181 184.595 32.4209C184.395 31.8181 184.061 31.3492 183.595 31.0142C183.128 30.6123 182.462 30.4784 181.662 30.4784C180.996 30.4784 180.396 30.6793 179.863 31.0142C179.33 31.3492 178.797 31.7511 178.33 32.287L178.197 30.7463H176.598V41.5979H178.53V33.7606C179.463 32.6889 180.396 32.153 181.129 32.153C181.796 32.153 182.262 32.3539 182.595 32.8228C182.929 33.2917 183.062 33.9616 183.062 34.9664V41.5979H184.994V33.7606C185.927 32.6889 186.86 32.153 187.593 32.153C188.26 32.153 188.726 32.3539 189.059 32.8228C189.393 33.2917 189.526 33.9616 189.526 34.9664V41.5979H191.459V34.6984C191.459 33.2917 191.192 32.22 190.659 31.5501C189.992 30.7463 189.126 30.4114 188.06 30.4114Z" fill="white"/>
<path d="M196.655 30.6792H194.723V41.5308H196.655V30.6792Z" fill="white"/>
<path d="M195.657 26.1243C195.257 26.1243 194.991 26.2582 194.724 26.4592C194.458 26.6601 194.324 26.9951 194.324 27.33C194.324 27.6649 194.458 27.9999 194.724 28.2008C194.991 28.4018 195.324 28.5357 195.657 28.5357C196.057 28.5357 196.323 28.4018 196.59 28.2008C196.857 27.9999 196.99 27.6649 196.99 27.33C196.99 26.9281 196.857 26.6601 196.59 26.4592C196.39 26.2582 196.057 26.1243 195.657 26.1243Z" fill="white"/>
<path d="M205.852 36.3061C205.519 36.0381 205.186 35.8372 204.786 35.7032C204.386 35.5692 203.987 35.3683 203.653 35.2343C203.32 35.1003 203.054 35.0334 202.787 34.8994C202.52 34.7654 202.254 34.6984 202.054 34.4975C201.854 34.3635 201.654 34.2295 201.521 34.0286C201.388 33.8276 201.321 33.6267 201.321 33.4257C201.321 33.0238 201.454 32.6889 201.787 32.4209C202.121 32.153 202.587 31.952 203.254 31.952C203.72 31.952 204.12 32.019 204.52 32.22C204.92 32.4209 205.319 32.6219 205.653 32.8898L205.719 32.9568L206.652 31.6841L206.586 31.6171C206.186 31.2822 205.653 31.0142 205.119 30.7463C204.52 30.4784 203.92 30.4114 203.254 30.4114C202.654 30.4114 202.121 30.4784 201.721 30.6793C201.254 30.8133 200.854 31.0812 200.521 31.3492C200.188 31.6171 199.921 31.952 199.788 32.3539C199.655 32.7559 199.522 33.1578 199.522 33.5597C199.522 34.0286 199.588 34.4305 199.788 34.7654C199.988 35.1003 200.255 35.3683 200.521 35.6362C200.854 35.9042 201.188 36.1051 201.587 36.2391C201.987 36.44 202.321 36.574 202.72 36.708L203.587 37.0429C203.853 37.1769 204.12 37.3109 204.386 37.4448C204.586 37.5788 204.786 37.7798 204.92 37.9807C205.053 38.1817 205.119 38.3826 205.119 38.6506C205.119 39.1195 204.92 39.4544 204.586 39.7893C204.253 40.1242 203.72 40.2582 203.054 40.2582C202.454 40.2582 201.854 40.1242 201.388 39.9233C200.921 39.7223 200.455 39.3874 199.988 38.9855L199.921 38.9185L198.922 40.2582L198.989 40.3252C199.522 40.7271 200.121 41.129 200.788 41.397C201.454 41.6649 202.254 41.7989 202.987 41.7989C203.653 41.7989 204.186 41.7319 204.72 41.5309C205.186 41.33 205.653 41.129 205.986 40.7941C206.319 40.5261 206.586 40.1242 206.719 39.7223C206.852 39.3204 206.985 38.9185 206.985 38.4496C206.985 37.9137 206.852 37.5118 206.652 37.1099C206.452 36.842 206.186 36.574 205.852 36.3061Z" fill="white"/>
<path d="M213.917 39.9231C213.717 39.9901 213.517 40.0571 213.317 40.1241C213.117 40.191 212.917 40.191 212.717 40.191C212.117 40.191 211.717 39.9901 211.517 39.6552C211.318 39.3202 211.184 38.7843 211.184 38.1815V32.2868H214.05V30.6791H211.184V27.6648H209.518L209.318 30.6791L207.652 30.8131V32.2868H209.252V38.1815C209.252 38.7174 209.318 39.1863 209.385 39.6552C209.518 40.1241 209.652 40.526 209.918 40.7939C210.185 41.1288 210.518 41.3298 210.918 41.5307C211.318 41.7317 211.784 41.7987 212.384 41.7987C212.717 41.7987 213.05 41.7317 213.45 41.6647C213.783 41.5977 214.116 41.4638 214.383 41.3968H214.45L214.05 39.9231H213.917Z" fill="white"/>
<path d="M221.246 36.641C221.113 37.1099 220.98 37.6458 220.78 38.1147C220.646 38.5835 220.513 39.1194 220.313 39.5883C220.18 39.1194 219.98 38.5835 219.847 38.1147C219.647 37.5788 219.514 37.1099 219.314 36.641L217.114 30.6793V30.6123H215.115L219.447 41.4639L219.18 42.2677C218.98 42.9376 218.647 43.4735 218.314 43.8754C217.914 44.2773 217.448 44.4782 216.848 44.4782C216.715 44.4782 216.581 44.4783 216.448 44.4113L215.982 44.2773L215.582 45.818H215.648C215.848 45.8849 216.048 45.9519 216.248 46.0189C216.448 46.0859 216.715 46.0859 216.915 46.0859C217.448 46.0859 217.981 46.0189 218.381 45.818C218.78 45.617 219.18 45.3491 219.514 45.0141C219.847 44.6792 220.113 44.2773 220.38 43.8084C220.646 43.3395 220.846 42.8706 221.046 42.3347L225.045 30.6793V30.6123H223.112L221.246 36.641Z" fill="white"/>
<path d="M231.376 30.4114C230.776 30.4114 230.176 30.6123 229.643 31.0142C229.11 31.4162 228.71 31.885 228.377 32.5549L228.244 30.7463V30.6793H226.645V41.5309H228.577V34.5645C228.91 33.6937 229.377 33.0238 229.843 32.6889C230.31 32.3539 230.776 32.153 231.243 32.153C231.443 32.153 231.643 32.153 231.776 32.22C231.909 32.22 232.109 32.287 232.242 32.3539H232.309L232.709 30.6123H232.642C232.242 30.4784 231.843 30.4114 231.376 30.4114Z" fill="white"/>
<path d="M235.374 26.1243C234.974 26.1243 234.707 26.2582 234.441 26.4592C234.174 26.6601 234.041 26.9951 234.041 27.33C234.041 27.6649 234.174 27.9999 234.441 28.2008C234.707 28.4018 235.041 28.5357 235.374 28.5357C235.774 28.5357 236.04 28.4018 236.307 28.2008C236.573 27.9999 236.707 27.6649 236.707 27.33C236.707 26.9281 236.573 26.6601 236.307 26.4592C236.107 26.2582 235.774 26.1243 235.374 26.1243Z" fill="white"/>
<path d="M236.308 30.6792H234.375V41.5308H236.308V30.6792Z" fill="white"/>
<path d="M244.97 30.4114C244.237 30.4114 243.57 30.6123 242.971 30.9473C242.438 31.2822 241.904 31.6841 241.371 32.22L241.238 30.6793H239.639V41.5309H241.571V33.6937C242.104 33.1578 242.571 32.7559 242.971 32.4879C243.371 32.22 243.837 32.086 244.437 32.086C245.103 32.086 245.636 32.287 245.903 32.7559C246.236 33.2248 246.369 33.8946 246.369 34.8994V41.5309H248.302V34.6314C248.302 33.2248 248.035 32.153 247.502 31.4831C246.969 30.7463 246.169 30.4114 244.97 30.4114Z" fill="white"/>
<path d="M259.632 40.7271C259.032 40.3252 258.032 40.1242 256.766 40.1242H254.7C253.967 40.1242 253.501 39.9903 253.234 39.7893C252.968 39.5884 252.834 39.3204 252.834 38.9855C252.834 38.7175 252.901 38.4496 253.034 38.2486C253.168 38.0477 253.301 37.9137 253.501 37.7798C253.767 37.9137 253.967 37.9807 254.234 38.0477C254.5 38.1147 254.767 38.1817 255.034 38.1817C255.567 38.1817 256.1 38.1147 256.566 37.9137C257.033 37.7128 257.499 37.5118 257.832 37.1769C258.166 36.842 258.499 36.44 258.699 35.9712C258.899 35.5023 259.032 34.9664 259.032 34.3635C259.032 33.8946 258.965 33.4927 258.765 33.0908C258.632 32.7559 258.432 32.4879 258.232 32.22H260.365V30.6793H256.566C256.366 30.6123 256.1 30.5453 255.9 30.4784C255.633 30.4114 255.367 30.4114 255.034 30.4114C254.5 30.4114 253.967 30.4784 253.434 30.6793C252.968 30.8803 252.501 31.1482 252.101 31.4831C251.701 31.8181 251.435 32.22 251.235 32.6889C251.035 33.1578 250.902 33.6937 250.902 34.2965C250.902 34.9664 251.035 35.5692 251.368 36.0381C251.635 36.507 251.968 36.9089 252.301 37.2439C252.035 37.4448 251.768 37.7128 251.502 38.0477C251.235 38.3826 251.102 38.7845 251.102 39.2534C251.102 39.7223 251.168 40.0573 251.368 40.3922C251.568 40.6601 251.768 40.9281 252.035 41.062C251.568 41.397 251.168 41.7989 250.902 42.2008C250.635 42.6027 250.502 43.0716 250.502 43.5405C250.502 44.0094 250.635 44.4783 250.835 44.8132C251.035 45.1481 251.368 45.4831 251.768 45.751C252.168 46.0189 252.634 46.2199 253.168 46.3539C253.701 46.4878 254.3 46.5548 254.967 46.5548C255.833 46.5548 256.566 46.4209 257.233 46.2199C257.899 46.0189 258.499 45.751 258.965 45.4161C259.432 45.0811 259.832 44.6792 260.032 44.2103C260.298 43.7414 260.431 43.2725 260.431 42.7367C260.631 41.7989 260.298 41.129 259.632 40.7271ZM252.968 34.2965C252.968 33.4927 253.168 32.8898 253.634 32.4879C254.034 32.086 254.567 31.8851 255.167 31.8851C255.767 31.8851 256.3 32.086 256.7 32.4879C257.099 32.8898 257.366 33.4927 257.366 34.2965C257.366 34.6984 257.299 35.0334 257.166 35.3683C257.033 35.7032 256.899 35.9712 256.7 36.1721C256.5 36.3731 256.233 36.574 255.966 36.641C255.433 36.842 254.834 36.842 254.3 36.641C254.034 36.507 253.767 36.3731 253.567 36.1721C253.368 35.9712 253.168 35.7032 253.101 35.3683C252.968 35.0334 252.968 34.6984 252.968 34.2965ZM258.699 43.0046C258.699 43.2725 258.632 43.5405 258.499 43.8084C258.366 44.0764 258.099 44.2773 257.832 44.4783C257.566 44.6792 257.166 44.8132 256.766 44.9472C256.366 45.0811 255.9 45.1481 255.367 45.1481C254.434 45.1481 253.634 44.9472 253.101 44.6792C252.568 44.3443 252.301 43.9424 252.301 43.3395C252.301 43.0716 252.368 42.7367 252.568 42.4687C252.768 42.2008 253.034 41.8659 253.368 41.5979C253.567 41.6649 253.834 41.7319 254.034 41.7319C254.3 41.7319 254.5 41.7989 254.7 41.7989H256.566C257.233 41.7989 257.766 41.8659 258.166 42.0668C258.565 42.2008 258.699 42.5357 258.699 43.0046Z" fill="white"/>
<path d="M79.3693 30.2104H22.6582V41.5979H79.3693V30.2104Z" fill="white"/>
<path d="M79.3031 1.67456H45.3164V13.0621H79.3031V1.67456Z" fill="white"/>
<path d="M79.3689 15.9424H0V27.3299H79.3689V15.9424Z" fill="white"/>
</svg>
